<?xml version="1.0" encoding="UTF-8"?>
<svg width="16px" height="16px" viewBox="0 0 16 16" version="1.1" xmlns="http://www.w3.org/2000/svg" xmlns:xlink="http://www.w3.org/1999/xlink">
    <title>Delete</title>
    <g id="delete-icon" stroke="none" stroke-width="1" fill="none" fill-rule="evenodd">
        <path d="M8,0 C12.418278,0 16,3.581722 16,8 C16,12.418278 12.418278,16 8,16 C3.581722,16 0,12.418278 0,8 C0,3.581722 3.581722,0 8,0 Z M8,1 C4.13400675,1 1,4.13400675 1,8 C1,11.8659932 4.13400675,15 8,15 C11.8659932,15 15,11.8659932 15,8 C15,4.13400675 11.8659932,1 8,1 Z" id="circle" fill="#FF0000"></path>
        <path d="M11,5 L10,5 L10,4 C10,3.44771525 9.55228475,3 9,3 L7,3 C6.44771525,3 6,3.44771525 6,4 L6,5 L5,5 C4.44771525,5 4,5.44771525 4,6 L4,7 C4,7.55228475 4.44771525,8 5,8 L5,12 C5,12.5522847 5.44771525,13 6,13 L10,13 C10.5522847,13 11,12.5522847 11,12 L11,8 C11.5522847,8 12,7.55228475 12,7 L12,6 C12,5.44771525 11.5522847,5 11,5 Z M7,4 L9,4 L9,5 L7,5 L7,4 Z M10,12 L6,12 L6,8 L10,8 L10,12 Z" id="trash" fill="#FFFFFF"></path>
    </g>
</svg> 